<?xml version="1.0" standalone="no"?>
<!DOCTYPE svg PUBLIC "-//W3C//DTD SVG 20010904//EN"
 "http://www.w3.org/TR/2001/REC-SVG-20010904/DTD/svg10.dtd">
<svg version="1.0" xmlns="http://www.w3.org/2000/svg"
 width="1024.000000pt" height="1024.000000pt" viewBox="0 0 1024.000000 1024.000000"
 preserveAspectRatio="xMidYMid meet">

<g transform="translate(0.000000,1024.000000) scale(0.100000,-0.100000)"
fill="#000000" stroke="none">
<path d="M4797 7448 c-19 -35 -77 -142 -129 -238 -94 -172 -252 -462 -300
-550 -40 -71 -447 -818 -486 -890 -19 -36 -43 -78 -52 -95 -10 -16 -91 -165
-180 -330 -89 -165 -174 -319 -187 -342 l-25 -43 359 0 359 0 49 100 49 100
433 2 434 3 149 273 c83 150 150 275 150 278 0 2 -193 4 -430 4 -236 0 -430 3
-430 6 0 9 220 417 397 737 145 261 167 296 178 280 12 -18 210 -379 657
-1198 129 -236 255 -465 279 -507 l43 -78 343 0 343 0 -47 88 c-133 248 -565
1041 -898 1647 -45 83 -125 229 -178 325 -52 96 -133 245 -180 330 l-85 155
-291 3 -290 2 -34 -62z"/>
<path d="M4340 4401 c-190 -27 -352 -135 -440 -294 -62 -114 -83 -208 -78
-352 6 -138 34 -238 94 -333 138 -218 392 -321 666 -268 92 18 155 45 234 101
167 119 248 304 239 545 -7 199 -51 308 -174 431 -80 80 -174 134 -272 158
-64 15 -203 21 -269 12z m258 -249 c58 -31 118 -86 149 -139 30 -53 63 -170
63 -228 0 -162 -84 -321 -199 -380 -61 -31 -159 -49 -215 -41 -71 11 -178 70
-220 121 -79 96 -118 240 -97 361 29 166 108 272 240 321 58 22 225 12 279
-15z"/>
<path d="M5725 4399 c-142 -22 -254 -76 -344 -168 -123 -124 -188 -305 -178
-496 13 -269 161 -477 401 -564 63 -23 86 -25 206 -25 121 0 143 3 215 28 44
15 95 36 114 47 l34 20 46 -52 c25 -29 53 -62 62 -72 15 -19 18 -18 97 49 l82
69 -76 70 -77 70 31 48 c37 59 78 158 89 218 14 76 8 258 -11 329 -55 203
-213 363 -411 414 -79 20 -205 27 -280 15z m261 -252 c170 -87 249 -340 167
-536 l-14 -33 -32 28 c-18 16 -55 51 -84 78 l-51 49 -61 -54 c-34 -29 -61 -55
-61 -57 0 -2 36 -48 80 -102 85 -104 84 -103 24 -133 -69 -35 -220 -30 -298
10 -52 27 -117 96 -148 157 -72 143 -71 290 4 441 34 70 58 98 112 132 70 45
104 53 211 50 85 -3 108 -7 151 -30z"/>
<path d="M2067 4383 c-2 -5 -17 -46 -32 -93 -15 -47 -52 -148 -82 -225 -31
-77 -77 -203 -103 -280 -26 -77 -85 -243 -129 -370 -45 -126 -83 -234 -84
-238 -3 -14 256 -8 265 6 4 7 26 67 49 135 l41 122 241 -2 240 -3 44 -132 44
-132 135 -3 c130 -3 134 -2 128 17 -20 70 -219 620 -276 765 -39 96 -89 234
-113 305 l-43 130 -160 3 c-88 1 -162 -1 -165 -5z m249 -490 c43 -124 80 -230
82 -234 2 -4 -73 -9 -167 -11 -94 -2 -171 -2 -171 -2 0 1 27 80 61 175 34 96
71 202 83 236 11 35 24 63 27 63 3 0 41 -102 85 -227z"/>
<path d="M2975 3780 l0 -610 388 0 387 0 0 58 c0 31 -3 81 -6 110 l-7 52 -253
0 -254 0 0 500 0 500 -127 0 -128 0 0 -610z"/>
<path d="M6612 3958 c4 -404 6 -437 25 -499 26 -81 36 -103 80 -156 77 -95
202 -152 354 -160 236 -14 412 73 493 240 47 98 57 205 55 581 -1 188 -4 358
-7 379 -4 37 -4 37 -51 37 -25 0 -75 -3 -111 -6 -61 -6 -65 -8 -67 -33 0 -14
-5 -206 -10 -427 l-8 -400 -27 -41 c-41 -62 -121 -98 -218 -98 -88 1 -140 23
-189 82 -61 74 -64 90 -72 513 -4 212 -7 393 -8 403 -1 15 -14 17 -122 17
l-120 0 3 -432z"/>
<path d="M7820 3775 l0 -605 390 -2 390 -3 0 108 0 107 -209 0 c-114 0 -236 3
-270 6 l-61 7 0 144 0 145 240 -8 240 -7 0 112 0 111 -240 0 -240 0 0 140 0
140 270 0 270 0 0 105 0 105 -390 0 -390 0 0 -605z"/>
</g>
</svg>
